<?xml version="1.0" encoding="UTF-8"?>
<svg version="1.1" viewBox="0 0 2048 2048" width="300" height="300" xmlns="http://www.w3.org/2000/svg">
<path transform="translate(0)" d="m0 0h2048v2048h-2048z" fill="#DBEAFB"/>
<path transform="translate(988,682)" d="m0 0h73l38 2 13 1 2 1 29 2 37 5 2 1 17 2 7 2 29 5 16 4 23 5 27 7v2h7l19 6 9 3 10 4 11 3 15 5v2l11 2v2l7 1 6 3 5 1v2l5 1 7 2v2l5 1 7 3 18 8 12 5 19 10 25 12v2l9 3 4 2v2l9 3v2l9 3v2l5 1v2l5 1v2l5 1v2l5 1v2l5 1v2h3v2h3v2l5 1v2h3v2h3v2h3v2h3v2l5 1v2h3v2h3v2h3v2h3v2h3l1 2 3 1v2h3v2l4 1 3 2v2l5 1 2 3 4 2v2h3v2l4 1v2l4 1v2l4 1v2l4 1v2l5 2 1 3 4 1v2l4 1 6 5v2l5 2v2l5 2 3 3 4 3v2l5 2 2 4 5 2 2 4 4 2 8 7 4 4 8 7 2 4 4 2 10 9 17 17 3 5-5 3-18 18h-2l-1 3-7 6-5 6-8 7-36 36-5 8-8 20-18 42-13 29-10 24-15 35-11 25-14 33-7 16h-2l-3 10-10 23-15 35-13 30-17 40-15 34-10 24-12 28-11 25-23 54-14 32-10 24-13 30-14 32-13 31-13 30-9 21-13 30-11 24-11 20-12 18-12 16-8 10-18 20-15 15-11 9-13 11-23 16-19 11-23 12-27 11-26 8-22 5-17 3-29 3h-1043v-382l1-4 1-24 2-16 1-17 1-2 2-24 3-21 2-10 3-19 2-7 3-19 6-25 3-14 3-9 7-28 12-36 7-22 3-8 5-13 10-25 5-11 5-13 7-14 3-8 7-14 10-21 7-12 4-8 12-22 16-27h2l1-5 7-11h2v-3h2l1-4 15-23h2l1-4 12-17 10-13 14-19 3-4h2l2-5h2l2-5 3-1 2-5 3-1 2-5 5-6h2l2-5 7-7 7-8 12-13 7-8 5-5 16-17 10-10 8-7 13-13 8-7 5-4h2l2-4 4-3h2l2-4 4-1 2-4 4-2 4-5 3-1 4-4h2l1-3 4-1 1-3 6-4h2v-2l4-1 1-3 5-4h3l1-3h3v-2l4-1v-2h3l1-3h3l1-3h3v-2l11-8h3v-2h3l1-3 3-2h3v-2h3v-2h3v-2h3v-2h3v-2h3v-2h3v-2l5-3h3v-2h3v-2l5-1v-2h3v-2l5-1v-2l7-2v-2h3v-2l7-2v-2l5-1v-2l5-1v-2l9-3v-2l7-3h2v-2l9-4h2v-2l29-14 5-3 10-4 7-4 7-3 8-3h2v-2l7-1v-2l7-1v-2h5v-2h5v-2h5v-2l13-4 3-2 9-3 19-7 17-5 16-6h7v-2l29-8 37-9 9-2 14-3 13-2 8-2 11-1 1-1 11-1 1-1 38-5 16-1 3-1 23-2 28-1z" fill="#0162F8"/>
<path transform="translate(0)" d="m0 0h2048v430h-2048z" fill="#0162F8"/>
<path transform="translate(1007,1024)" d="m0 0h53l20 2 17 1 11 2 19 2 25 5 18 3 9 3 13 3 20 5 10 3 9 3 9 4 11 3 8 3 6 3 10 3 10 5 7 3 12 5 30 15 15 8 12 7 11 7 3 1v2l5 1v2l5 2 16 10 18 13 4 2 2 3 3 1 5 5 3 2v3l-50 21-46 19-15 6-29 12-26 11-20 8-29 12-34 14-19 8-25 10-12 5-70 29-25 10-28 12-30 12-80 33-26 12-22 12-14 9-12 8-18 14-14 12-18 18-7 8-10 12-12 16-9 14-8 13-10 19-10 22-10 28-7 27-4 22-3 26-1 27 1 22 4 30 4 20 6 23 9 25 9 20 10 20 12 20 10 14 12 16 3 3v2h2l7 8 11 12 6 6v2h2v2l4 2 12 11 20 15 21 14 15 9 19 10 27 11 25 8 26 6 17 3 31 3v1h-1008v-341h342l-1-2 1-28 1-4 2-31 1-4 1-13 2-10 2-17 2-6 3-17 6-25 4-17 5-15 6-21 4-10 5-14 8-20 7-17 5-10 4-10 13-26h2l2-7 5-8 1-3h2l1-5h2l3-9h2l1-4 4-7h2l1-5h2l2-5 7-12h2l1-4h2v-3h2v-3h2l2-4 5-7 1-3h2v-2h2l2-4 4-7h2l4-8 2-1 2-4 4-4 5-6 5-5 5-7 10-10 16-17 19-19 8-7 10-9 8-7 5-5 4-2 1-2 4-2 1-2 5-3 21-16 16-11 7-5h2v-2l5-3h3v-2l6-3h2v-2l5-1v-2l11-6 4-1v-2l16-8 4-3 36-18 13-5 12-5 13-5 11-4 13-5 10-3 10-4 14-4 35-8 34-7 36-5 3-1 17-1 5-1z" fill="#DBEAFB"/>
<path transform="translate(1750,992)" d="m0 0 5 1 14 14 7 8 12 13 7 8 11 13 9 11 12 15 12 16 14 19 13 19 20 30 10 16 15 25 14 26 12 23 8 16 12 25 11 25 15 38 12 34 13 41 12 45 10 46 7 40 6 47 3 34 2 35v373h-1e3v-1l29-3 31-6 25-7 22-8 24-11 19-10 19-12 18-13 13-11 14-12 17-17 7-8 10-12 14-19 15-23 13-25 13-30 15-35 10-23 17-40 26-60 17-40 23-53 11-26 11-25 11-26 12-28 11-25 11-26 12-28 13-30 17-40 5-12h2l1-5 8-18 18-42 11-25 14-33 15-35 10-22 20-48 11-12 32-32h2l1-3 5-4 7-8 8-7z" fill="#FBFCFC"/>
<path transform="translate(1665,1073)" d="m0 0h3l-3 9-18 43-9 20-16 37-11 26-13 30-19 44-7 16-2 5h-2l-3 10-10 23-15 35-13 30-17 40-15 34-10 24-12 28-11 25-23 54-14 32-10 24-13 30-14 32-13 31-13 30-9 21-13 30-11 24-11 20-12 18-12 16-8 10-18 20-15 15-11 9-13 11-23 16-19 11-23 12-27 11-26 8-22 5-17 3-29 3h-35l-38-4-28-6-24-7-27-10-21-10-19-11-24-16-17-13-13-11-6-5v-2h-2l-7-8-8-8-7-8-2-4h-2l-11-14-13-18-11-18-14-27-10-23-10-30-5-22-4-24-2-17-1-32 2-27 3-23 6-27 7-24 10-26 13-27 8-14 12-19 12-15 7-9 10-11 7-8 17-17 10-8 14-11 14-10 10-6 13-8 25-13 30-13 66-27 32-13 21-9 15-6 92-38 13-5 29-12 19-8 34-14 19-8 20-8 41-17 15-6 48-20 22-9 26-11 10-4h2l1-2 9-3 41-17 29-12 37-15 28-12 30-12 24-10 21-9z" fill="#48B7F4"/>
<path transform="translate(345,1706)" d="m0 0h335l1 1 3 37 3 19v5h2l4 18 5 19 9 25 9 20 10 20 12 20 10 14 12 16 3 3v2h2l7 8 11 12 6 6v2h2v2l4 2 12 11 20 15 21 14 15 9 19 10 27 11 25 8 26 6 17 3 31 3v1h-1008v-341z" fill="#FBFCFC"/>
<path transform="translate(1750,992)" d="m0 0 5 1 14 14 7 8 12 13 7 8 11 13 9 11 12 15 12 16 14 19 13 19 20 30 10 16 15 25 14 26 12 23 8 16 12 25 11 25 15 38 12 34 13 41 12 45 10 46 7 40 6 47 3 34 2 35v32h-340l-2-1-2-40-3-31-6-39-7-34-8-31-11-35-10-28-13-31-16-34-12-23-14-24-13-21-8-12-12-17-1-1 1-7 8-18 18-42 11-25 14-33 15-35 10-22 20-48 11-12 32-32h2l1-3 5-4 7-8 8-7z" fill="#FD5AA2"/>
<path transform="translate(1665,1073)" d="m0 0h3l-1 4-6 4-9 10-4 3h-2v2l-6 2-1 4-2 3-5-1-3 1 1 3-3 1 1 3-4 1v3h-2l-1 4-7 8-8 7-16 16h-2l-1 3h-2v2l-3 1-2 1v2l-4 3v2l-4 1v3h-2v2l-4 1v3h-2v2h-2v2l-4 4h-2v2h-2v2l-8 7-12 12h-2l-2 4-3 1-2 4-7 7-6 5-4 5-5 5-10 9-5 5-6 7-5 4-56 56h-2l-1 3h-2l-1 3-5 5-10 9-4 4h-2l-2 4-13 13h-2l-2 4-12 12h-2l-2 4-5 4-6 7-6 5-23 23-6 7-8 7-27 27-8 7-61 61h-2l-2 4h-2v2h-2l-2 4h-2v2h-2v2h-2v2l-8 7-31 31h-2l-2 4h-2v2l-4-1-11-10-15-11-15-9-20-9-21-6-17-3-12-1h-19l-18 2-21 5-19 7-20 10-14 10-10 8-11 10-9 11-8 10-9 15-9 19-6 19-4 20-1 8v33l3 20 6 20 6 15 9 17 10 14 12 14 2 5-8 7-29 29h-2v2l-4 4h-2v2h-2v2l-8 7-6 7-8 7-20 20h-2l-2 4-25 25-4-1-7-7-7-8-2-4h-2l-11-14-13-18-11-18-14-27-10-23-10-30-5-22-4-24-2-17-1-32 2-27 3-23 6-27 7-24 10-26 13-27 8-14 12-19 12-15 7-9 10-11 7-8 17-17 10-8 14-11 14-10 10-6 13-8 25-13 30-13 66-27 32-13 21-9 15-6 92-38 13-5 29-12 19-8 34-14 19-8 20-8 41-17 15-6 48-20 22-9 26-11 10-4h2l1-2 9-3 41-17 29-12 37-15 28-12 30-12 24-10 21-9z" fill="#6ECBFB"/>
<path transform="translate(1014,1536)" d="m0 0h21l22 3 23 6 21 9 14 8 14 10 15 13 8 8 13 17 9 15 10 21 6 20 3 16 2 22v12l-2 19-5 22-6 16-8 17-9 14-10 13-12 13-10 9-15 11-14 8-17 8-18 6-18 4-19 2h-18l-22-3-19-5-16-6-16-8-13-8-12-9-10-9-9-9-9-11-10-14-11-21-9-27-3-15-1-9v-33l4-24 6-20 8-18 6-11 8-12 11-13 11-12 14-11 11-8 23-12 19-7 21-5z" fill="#0162F9"/>
<path transform="translate(1568,1303)" d="m0 0h2l14 20 13 20 15 25 13 23 12 24 14 31 12 30 13 38 10 36 6 25 6 32 5 37 3 38v24l-4 1h-306l-1 3-1-2 15-34 13-31 13-30 24-56 26-60 13-31 16-36 12-29 29-67z" fill="#DCEBFC"/>
<path transform="translate(204,123)" d="m0 0h20l15 3 13 5 11 6 11 9 10 10 9 14 8 18 3 13v27l-4 17-9 19-10 13-10 10-15 10-8 4-14 4-9 2h-23l-16-4-16-7-12-8-11-10-9-12-8-15-4-11-3-14v-20l2-14 5-13 7-14 10-13 8-8 10-7 14-8 12-4z" fill="#FBFCFB"/>
<path transform="translate(503,123)" d="m0 0h25l16 4 16 7 14 10 13 13 9 14 6 14 4 18v27l-3 12-4 12-9 15-11 12-11 10-16 9-7 3-17 4h-22l-19-4-16-8-11-7-14-14-10-15-6-14-3-10-1-8v-27l5-19 9-17 11-14 10-9 13-8 15-7z" fill="#FBFCFB"/>
<path transform="translate(0)" d="m0 0h163v1l-14 1-27 6-12 4-11 5-14 7-11 7-1 2-5 3-11 9-15 15-14 19-8 14-9 20-5 16-3 14-2 22h-1z" fill="#F9FCFB"/>
<path transform="translate(1892)" d="m0 0h156v164h-1l-4-31-6-20-7-16-8-15-2-5h-2l-4-7-8-10-7-8-8-7-10-9-15-10-12-7-22-9-19-5-14-3-7-1z" fill="#FAFCFB"/>
<path transform="translate(1568,1303)" d="m0 0h2l14 20 6 9 1 5-2 1-7-2-2-4h-2l-4-7h-4v2l-6 6h-4v-6l5-11z" fill="#F9FBFC"/>
<path transform="translate(1637,1085)" d="m0 0 3 1-7 5-2 4 1 3h-2v2h-8l-1 2-5-2-4 2-4-1-1-1-4-1 28-11z" fill="#4AB8F4"/>
<path transform="translate(289,263)" d="m0 0 2 1-10 13-10 10-15 10-8 4h-2v-2h2l1-2h3l1-2 5-3h2v-2l8-5 12-10 4-7h2v-2h2z" fill="#CDE7FC"/>
<path transform="translate(2046,1623)" d="m0 0 2 2v50h-1l-3-46v-5z" fill="#E2EEFC"/>
<path transform="translate(2e3 57)" d="m0 0 4 1 10 13 6 9 8 16 6 13-1 4-7-16-8-15-2-5h-2l-4-7-8-10z" fill="#C8E5FB"/>
<path transform="translate(160,140)" d="m0 0 2 1-10 9-1 3h-2l-2 4h-2l-2 4-7 11-4 7-1-2 6-12 10-13 8-8z" fill="#D4E8FC"/>
<path transform="translate(960,2042)" d="m0 0 10 1 38 4v1h-28l-7-2-13-3z" fill="#DCEBFC"/>
<path transform="translate(443,268)" d="m0 0 4 2 3 3v2h2v2h2v2h2v2h2l5 6 6 4-1 2-9-6-13-13-3-4z" fill="#D5E9FC"/>
<path transform="translate(456,145)" d="m0 0 2 1-7 9-5 5-6 8-7 15h-2l2-6 7-13 11-14z" fill="#CBE6FB"/>
<path transform="translate(302,198)" d="m0 0 2 3v27l-4 17-2 3-1-3 3-13 2-6z" fill="#C4E3FB"/>
<path transform="translate(64,36)" d="m0 0 3 1-10 8-15 15-5 7-1-4h2l2-4 6-7 4-4h2v-2l8-7h2v-2z" fill="#D5E9FC"/>
<path transform="translate(2040,121)" d="m0 0h2l5 19 1 1v23h-1l-4-31z" fill="#AEDCFA"/>
<path transform="translate(252,132)" d="m0 0 6 2 10 7 10 9 2 3-2 1v-2h-2v-2l-6-3v-2h-2v-2h-3v-2h-2v-2h-3v-2l-4-1-3-1z" fill="#D4E8FC"/>
<path transform="translate(503,123)" d="m0 0h25l10 2v1h-24l-9-1h-7v-1z" fill="#C3E3FB"/>
<path transform="translate(272,281)" d="m0 0m-1 1m-1 1m-1 1m-1 1m-1 1m-1 1m-2 1h2l-2 4-10 6-6 3h-2v-2h2l1-2h3l1-2 5-3h2v-2z" fill="#D4E8FC"/>
<path transform="translate(577,279)" d="m0 0 3 1-7 7-10 7-5 2 1-3 5-3 4-1 2-4z" fill="#D4E8FC"/>
<path transform="translate(204,123)" d="m0 0h20v1l-21 2-2 1-10-1v-1z" fill="#D7E9FB"/>
<path transform="translate(1545,1123)" d="m0 0 3 1-4 1v4h-2l-1 2v-2h-3l-1 2v-2l-5 2-3-1z" fill="#4BB9F4"/>
<path transform="translate(144,157)" d="m0 0v3l-10 15-2 4-1-2 6-12 4-6z" fill="#CFE7FC"/>
<path transform="translate(1613,1374)" d="m0 0 3 1 4 7 2 9-3-1-5-13z" fill="#F4F8FC"/>
<path transform="translate(20,87)" d="m0 0h2l-2 6-7 15-1-3 6-15z" fill="#CAE6FC"/>
<path transform="translate(563,137)" d="m0 0 4 2 9 7 2 3-5-2v-2h-3v-2l-4-1-3-3z" fill="#D8EAFC"/>
<path transform="translate(1396,1140)" d="m0 0 4 2 2 2-4 1-1 2-4-2 1-3z" fill="#FCFDFC"/>
<path transform="translate(143)" d="m0 0h20v1l-14 1-7 1z" fill="#ABDAF9"/>
<path transform="translate(456,145)" d="m0 0 2 1-7 9-4 1 4-6z" fill="#BCE2FC"/>
<path transform="translate(589,266)" d="m0 0 2 1-7 9-4 3v-3l5-5z" fill="#D7E9FC"/>
<path transform="translate(258,292)" d="m0 0m-1 1m-3 1h3l-1 3-8 4h-2v-2h2l1-2h3l1-2z" fill="#C9E5FB"/>
<path transform="translate(2e3 57)" d="m0 0 4 1 7 9v2h-2l-7-9z" fill="#D3E8FC"/>
</svg>